<svg version="1.1" id="Layer_1" xmlns="http://www.w3.org/2000/svg" xmlns:xlink="http://www.w3.org/1999/xlink" x="0px" y="0px"
	 width="100%" viewBox="0 0 1162 483" enable-background="new 0 0 1162 483" xml:space="preserve">
<path fill="#010001" opacity="1.000000" stroke="none" 
	d="
M732.000000,484.000000 
	C488.000031,484.000000 244.500061,484.000000 1.000065,484.000000 
	C1.000044,323.000061 1.000044,162.000092 1.000022,1.000109 
	C388.333252,1.000072 775.666504,1.000072 1162.999756,1.000036 
	C1162.999878,161.999893 1162.999878,322.999786 1163.000000,483.999817 
	C1019.500000,484.000000 876.000000,484.000000 732.000000,484.000000 
M407.840363,305.625702 
	C407.632416,311.557190 407.385040,317.487976 407.272797,323.421265 
	C407.260529,324.070496 408.036865,324.727905 408.428619,325.392609 
	C414.399414,335.524750 423.093964,342.051514 434.116302,346.157257 
	C440.466492,348.522614 446.684265,347.875153 450.986115,344.064575 
	C461.360382,334.875092 470.973297,324.776093 480.404053,314.590912 
	C485.662689,308.911591 489.942749,302.326263 494.663788,296.149200 
	C495.190857,296.388916 495.717926,296.628632 496.244965,296.868317 
	C491.898285,308.575928 486.745270,320.722626 496.146423,331.706848 
	C504.464447,341.425537 514.274048,349.653381 528.074402,348.982086 
	C528.790039,344.172485 529.082397,340.100830 530.053223,336.197968 
	C531.361816,330.937378 533.063354,325.762054 534.833069,320.631836 
	C536.962097,314.459869 539.168457,308.302979 541.656860,302.269714 
	C544.286560,295.893921 546.960388,289.495331 550.220947,283.432648 
	C553.309570,277.689667 557.194031,272.375702 560.709229,266.860840 
	C564.096802,261.546265 567.404358,256.179657 570.863098,250.912186 
	C572.091675,249.041214 573.731689,247.445923 575.061768,245.635101 
	C578.228638,241.323700 581.144836,236.816071 584.488831,232.649811 
	C589.228210,226.744919 594.112976,220.940125 599.220520,215.353043 
	C602.660461,211.590073 606.592590,208.276917 610.304504,204.762527 
	C610.732849,205.144348 611.161194,205.526169 611.589478,205.907990 
	C610.099915,208.687546 608.452820,211.395416 607.148865,214.259506 
	C602.327026,224.850006 596.443542,235.239731 597.939697,247.484802 
	C598.359497,250.920456 600.317078,254.154846 601.461426,257.518280 
	C603.543701,263.638214 609.523804,265.284576 614.274719,267.665161 
	C619.207703,270.137024 625.069092,271.193634 630.640564,271.795959 
	C634.204285,272.181274 638.104553,270.998383 641.621887,269.823792 
	C644.997253,268.696655 645.629517,266.826599 641.920532,264.582489 
	C637.813293,262.097382 635.356201,254.612000 637.203613,250.177811 
	C643.955078,233.972610 650.869263,217.834793 657.811890,201.710220 
	C658.487244,200.141586 660.592224,198.872162 660.651306,197.408081 
	C660.938965,190.282425 661.975220,183.072083 655.138123,177.542404 
	C648.844666,172.452423 642.127380,167.445770 634.197632,167.844833 
	C625.289978,168.293121 618.648865,175.215073 612.132263,180.749222 
	C606.414124,185.605301 601.814392,191.809402 596.892944,197.565338 
	C589.611084,206.081879 582.496887,214.741562 575.280273,223.314117 
	C572.034241,227.170074 568.713135,230.962830 564.939270,235.350296 
	C568.298645,224.550797 571.775146,214.916763 574.226746,205.028595 
	C576.369324,196.386871 576.825989,187.619095 568.633789,181.089035 
	C566.827332,179.649094 565.332458,177.818527 563.691956,176.170029 
	C557.055847,169.501663 543.635376,166.600952 535.926697,170.353607 
	C537.046753,171.938370 539.177795,173.585297 539.041016,175.015335 
	C538.622803,179.388000 537.597107,183.758163 536.306458,187.975937 
	C535.047058,192.091873 532.719910,195.902603 531.648621,200.050629 
	C528.314392,212.961075 522.668396,224.857941 516.116882,236.332245 
	C511.085510,245.144196 505.637970,253.727371 500.146973,262.265289 
	C495.666779,269.231445 490.992035,276.083771 486.142792,282.798279 
	C480.389984,290.763947 474.710632,298.829193 468.340851,306.288879 
	C462.740662,312.847260 456.245667,318.643799 450.091003,324.721191 
	C449.715424,325.092102 448.857269,324.974274 447.953735,325.130524 
	C447.889374,323.816010 447.515564,322.593292 447.829193,321.584167 
	C450.630096,312.571533 453.479797,303.572418 456.463501,294.618774 
	C458.531769,288.412201 460.611115,282.192474 463.085266,276.142120 
	C466.530975,267.715851 470.716705,259.578186 473.876801,251.054184 
	C475.875031,245.664169 476.869110,239.043457 474.226898,234.193832 
	C468.673279,224.000366 459.245087,217.697800 448.159790,214.180542 
	C444.452972,213.004440 442.640625,214.959274 441.723114,218.532532 
	C440.667389,222.644028 439.687866,226.921356 437.728577,230.625961 
	C432.690247,240.152283 427.600800,249.715225 421.651337,258.679169 
	C414.924622,268.814056 407.702087,278.705078 399.843475,287.980560 
	C391.289276,298.077087 381.864532,307.450714 372.576904,316.901276 
	C370.196503,319.323456 367.045319,321.121185 363.992554,322.716614 
	C359.981964,324.812592 357.816986,323.244568 357.693176,318.607483 
	C357.540131,312.877075 358.124786,307.474182 360.597382,301.999969 
	C364.486847,293.388916 366.884125,284.106903 370.724518,275.469727 
	C373.832733,268.479309 377.746582,261.760681 381.996765,255.383835 
	C389.174225,244.614899 396.127777,233.536011 404.607239,223.839508 
	C413.581329,213.577454 422.868683,203.234467 435.446075,196.835648 
	C441.112396,193.952866 446.676086,190.883575 452.975586,194.811615 
	C458.227600,198.086487 460.674011,203.000870 459.692688,210.740845 
	C462.569122,208.636673 464.661621,207.776306 465.724487,206.215042 
	C470.957733,198.527618 469.022003,190.373535 464.492523,183.815033 
	C455.659241,171.024857 441.483673,170.372818 428.392029,167.150284 
	C427.654205,166.968643 426.756775,167.351944 425.950653,167.543915 
	C412.744446,170.689011 399.822906,174.789124 389.292572,183.675598 
	C381.525818,190.229935 372.481293,195.456711 366.724304,204.281357 
	C365.154266,206.688004 362.988983,208.700378 361.159882,210.945038 
	C356.478638,216.689819 351.657166,222.331558 347.210358,228.253693 
	C338.607635,239.710464 330.306335,251.393707 321.688629,262.838928 
	C319.666687,265.524261 315.943512,267.202820 314.614441,270.087097 
	C309.522644,281.137177 299.447906,287.645935 291.603546,296.110260 
	C285.499695,302.696564 277.927612,307.911407 271.093140,313.833923 
	C261.382263,322.248993 250.595901,328.069275 237.367279,328.011322 
	C231.088730,327.983826 225.794495,322.878357 225.876419,316.578491 
	C226.002045,306.915863 226.524811,297.258423 226.879028,287.598785 
	C227.300430,287.291595 227.721832,286.984406 228.143234,286.677216 
	C237.704254,296.138062 246.276932,289.868378 255.279160,286.255554 
	C266.869537,281.604034 276.347900,273.938568 285.437622,265.837219 
	C292.056915,259.937714 297.770233,253.021194 303.875122,246.546478 
	C304.212769,246.188354 304.487762,245.748322 304.706451,245.304321 
	C307.577057,239.477020 310.297241,233.570786 313.329956,227.829529 
	C316.270538,222.262650 318.856232,216.657486 318.825806,210.189651 
	C318.800171,204.744995 318.516296,199.279114 318.893890,193.860764 
	C319.345062,187.386276 314.830170,183.411774 310.999054,180.199783 
	C304.383789,174.653549 296.324219,171.839508 287.463104,170.006149 
	C277.269257,167.897034 267.628754,169.045563 259.196747,173.092209 
	C248.812271,178.075851 239.193375,185.201660 230.374100,192.726578 
	C223.331284,198.735748 217.979736,206.727448 211.882492,213.843460 
	C211.565002,214.213974 211.233917,214.593018 211.010544,215.020996 
	C205.730515,225.136978 200.988968,235.584244 195.008591,245.266571 
	C191.118118,251.565292 190.170181,258.409454 188.458130,265.159363 
	C187.040222,270.749603 186.498352,276.557770 185.182159,282.178955 
	C182.434235,293.914642 183.790970,305.258484 188.075821,316.329315 
	C191.968613,326.387207 199.410858,333.523315 208.197678,339.262207 
	C219.707230,346.779297 232.193237,349.582520 245.731110,345.803619 
	C249.476776,344.758057 253.757004,344.386353 256.797455,342.273987 
	C268.869232,333.886993 280.898865,325.361603 292.250427,316.042511 
	C300.108795,309.591156 306.820068,301.744751 314.076752,294.554840 
	C314.797668,293.840576 315.747803,293.357697 317.356506,292.232300 
	C317.356506,294.967896 317.857605,296.938110 317.276093,298.507111 
	C313.156677,309.622131 318.262970,319.379395 323.323090,328.032501 
	C327.806763,335.699829 335.449799,341.564880 344.206024,345.056641 
	C349.330017,347.099945 354.602844,349.019043 359.979706,346.474823 
	C374.610046,339.552032 385.046967,327.731415 395.284454,315.706696 
	C399.978302,310.193420 404.796173,304.785706 409.557770,299.330109 
	C409.775726,299.467133 409.993713,299.604126 410.211670,299.741150 
	C409.506317,301.437866 408.800995,303.134552 407.840363,305.625702 
M133.145645,363.695984 
	C129.992783,362.640533 126.839920,361.585083 123.203720,360.367828 
	C123.902992,353.430115 124.193596,346.697449 125.383476,340.127594 
	C126.146111,335.916809 128.321945,331.975586 129.712097,327.862091 
	C133.102844,317.828735 136.197495,307.689880 139.818497,297.741699 
	C142.094788,291.487885 145.386475,285.605774 147.705414,279.364746 
	C149.764877,273.822083 150.608185,267.805359 152.869629,262.364166 
	C158.908920,247.833221 165.593155,233.570984 171.681793,219.059601 
	C175.230423,210.601974 177.937210,201.794327 181.365372,193.282135 
	C185.613647,182.733582 190.175400,172.310074 194.680283,161.866440 
	C197.951233,154.283401 201.558075,146.838852 204.626968,139.177078 
	C207.189636,132.779160 208.876114,126.026474 211.504471,119.659531 
	C216.562988,107.405754 220.308472,94.856865 223.126602,81.870583 
	C224.868225,73.844940 222.514374,67.126686 218.935837,61.077976 
	C213.810623,52.414890 206.450912,45.711647 195.813751,43.656616 
	C190.363129,42.603588 186.135757,41.955906 187.026321,50.034332 
	C188.033661,59.171978 185.155106,67.574188 181.796738,75.846512 
	C178.610687,83.694328 175.304138,91.493629 172.161423,99.358566 
	C166.028656,114.706238 160.060226,130.120071 153.853302,145.437439 
	C150.114578,154.663773 145.938583,163.712479 142.169662,172.927124 
	C137.901169,183.363083 133.926422,193.918823 129.715698,204.378891 
	C125.901550,213.853851 121.858894,223.237274 118.088921,232.729340 
	C116.677277,236.283600 116.039345,240.153870 114.539467,243.662399 
	C111.929611,249.767395 108.515892,255.548553 106.168671,261.741913 
	C101.032715,275.293640 96.074394,288.927734 91.592453,302.706726 
	C88.876221,311.057343 86.282600,319.637634 85.283325,328.304901 
	C84.232002,337.423584 83.512825,347.107269 91.792488,355.017578 
	C87.404350,355.017578 84.253136,355.124298 81.111176,354.998962 
	C68.089226,354.479523 55.701675,356.796021 44.742016,364.091919 
	C38.589333,368.187775 34.017540,373.639191 30.635212,380.622894 
	C28.247530,385.552948 28.581940,390.756927 26.589903,395.523346 
	C26.303856,396.207764 26.831577,397.991913 27.133591,398.028687 
	C28.329824,398.174469 30.040369,398.288788 30.748196,397.590973 
	C36.435944,391.984131 43.651417,390.059845 51.004742,387.629059 
	C62.981373,383.669983 75.060265,385.040863 87.058556,385.279846 
	C94.361618,385.425323 101.648949,387.816254 108.883980,389.459808 
	C114.634651,390.766144 120.298210,392.457947 125.995193,393.998016 
	C134.390717,396.267609 142.813690,398.444214 151.162582,400.874725 
	C156.269836,402.361542 161.224655,404.365448 166.311401,405.930908 
	C174.421494,408.426819 182.600037,410.699707 190.719299,413.166687 
	C195.671494,414.671356 200.518799,416.534271 205.498611,417.931946 
	C213.766571,420.252502 222.118057,422.273621 230.406906,424.522064 
	C238.757736,426.787292 247.006241,429.472870 255.426819,431.425568 
	C263.600067,433.320862 271.906464,434.704895 280.205902,435.977600 
	C291.073303,437.644073 301.959381,439.325745 312.898743,440.336945 
	C320.050293,440.998047 327.338379,440.883392 334.515198,440.389069 
	C343.128845,439.795807 351.841217,439.116150 360.241608,437.257202 
	C378.599182,433.194794 392.409576,422.028595 403.544434,407.305969 
	C405.536591,404.671875 407.439056,401.817322 408.631683,398.770508 
	C410.067078,395.103607 411.221619,391.167114 411.555542,387.266663 
	C412.039673,381.611511 411.679565,375.884064 411.679565,369.104828 
	C409.686310,370.465820 408.202393,370.932556 407.705231,371.904175 
	C403.372375,380.371826 395.443634,384.774078 387.605072,388.703217 
	C373.944275,395.550781 358.966400,398.990265 343.895935,399.719513 
	C328.148651,400.481506 312.236023,401.483307 296.459656,398.636017 
	C283.812439,396.353455 271.037689,394.777039 258.391785,392.488037 
	C246.130341,390.268677 233.936859,387.651489 221.758301,385.003082 
	C210.381470,382.528992 199.025162,379.938019 187.728973,377.121185 
	C172.670441,373.366119 157.685272,369.317657 142.652756,365.456879 
	C139.753769,364.712311 136.781921,364.251556 133.145645,363.695984 
M1012.179688,368.709747 
	C1003.881470,376.299255 995.584534,384.145538 983.915833,385.860504 
	C979.019226,386.580170 973.393555,386.769897 968.924377,385.052948 
	C959.336182,381.369446 957.021301,359.024292 964.614380,351.922455 
	C968.752808,348.051697 971.860352,343.099426 975.845398,339.039917 
	C986.315369,328.374023 999.641113,323.804901 1014.102783,322.037933 
	C1017.069885,321.675446 1020.119141,321.985413 1023.941528,321.985413 
	C1019.168457,316.203583 1014.543335,312.158051 1008.081848,311.546570 
	C993.595276,310.175659 980.413635,314.046844 968.587524,322.437225 
	C959.660156,328.770905 951.832703,336.163422 946.455078,345.904236 
	C941.339539,355.170319 940.381775,365.166840 941.168091,375.411163 
	C941.668945,381.934906 943.773132,388.017792 948.277588,392.987488 
	C959.537476,405.410217 973.860657,410.637848 990.324463,410.422394 
	C994.486450,410.367950 998.705688,408.744202 1002.780457,409.120575 
	C1013.466675,410.107666 1021.720337,403.777313 1030.824829,400.286499 
	C1036.042725,398.285889 1040.622070,394.305878 1045.077271,390.707428 
	C1050.847046,386.047058 1056.502197,381.164825 1061.652222,375.841675 
	C1066.033813,371.312561 1069.961792,366.247253 1073.491211,361.014984 
	C1078.080322,354.211426 1082.256104,347.107910 1086.252441,339.934448 
	C1088.230225,336.383972 1090.334839,332.486572 1090.752441,328.572266 
	C1091.597412,320.650757 1096.204346,313.483429 1094.310913,304.891876 
	C1093.275146,300.192780 1096.449097,294.423004 1095.049194,289.978912 
	C1092.651245,282.367493 1091.710815,274.444977 1087.165894,267.082306 
	C1081.461670,257.841644 1074.180420,251.318878 1065.185669,246.301407 
	C1055.899902,241.121567 1045.242676,240.741531 1035.016724,239.880295 
	C1028.431519,239.325653 1021.637024,241.253952 1015.209045,242.036240 
	C1023.135986,222.672440 1031.156982,203.078842 1039.156982,183.536423 
	C1041.583130,183.732101 1044.452881,183.298889 1046.734131,184.261139 
	C1057.340088,188.734802 1068.660278,188.875732 1079.772339,189.795700 
	C1086.056152,190.315948 1092.500000,189.097183 1098.856445,188.499298 
	C1107.022095,187.731247 1114.505371,184.708633 1120.306030,179.088303 
	C1126.565918,173.023102 1130.540649,165.772202 1131.840332,156.474960 
	C1132.828979,149.401337 1131.234863,143.286072 1129.945923,136.816849 
	C1129.759155,135.879959 1129.159302,135.025360 1128.408081,133.383957 
	C1125.238770,139.954254 1120.767334,143.813400 1114.865234,145.950241 
	C1107.559326,148.595398 1100.693115,151.909058 1092.274902,151.418488 
	C1084.345093,150.956345 1076.278687,153.687943 1068.251221,153.832489 
	C1058.255493,154.012451 1048.242065,152.861542 1038.228394,152.515366 
	C1032.065796,152.302353 1026.279785,150.221405 1019.835327,150.303268 
	C1014.484863,150.371216 1009.409790,149.438477 1004.677979,152.391510 
	C1003.640991,153.038635 1003.086853,154.989120 1002.929260,156.408112 
	C1002.576050,159.587387 1003.411682,163.111679 1002.337646,165.957458 
	C999.287476,174.039108 995.490173,181.836990 992.048035,189.773041 
	C989.112061,196.542221 986.246338,203.342041 983.375122,210.139099 
	C978.333618,222.073624 973.246887,233.990189 968.384399,245.997360 
	C967.910950,247.166656 968.376404,249.377045 969.251282,250.319244 
	C973.439026,254.829163 977.770691,259.231018 982.329224,263.364685 
	C988.596619,269.047852 992.357422,269.662018 996.714844,267.005493 
	C1007.661377,260.332001 1018.877747,254.942612 1032.428101,255.839447 
	C1043.699341,256.585449 1052.034546,264.049713 1052.078491,275.313324 
	C1052.116943,285.164276 1052.015137,294.841766 1049.369995,304.657654 
	C1046.171509,316.526428 1042.131104,328.002502 1035.995850,338.427704 
	C1029.611206,349.276337 1022.659973,360.011780 1012.179688,368.709747 
M801.741394,232.039627 
	C802.677429,229.552887 803.669250,227.085464 804.538757,224.575638 
	C806.781982,218.100082 808.538513,211.415024 811.293030,205.167984 
	C814.634521,197.589966 814.479553,190.287720 810.475220,183.396774 
	C808.538147,180.063354 804.579712,177.965118 802.249573,174.785156 
	C798.864319,170.165131 793.645630,168.761398 788.998962,168.394211 
	C784.595886,168.046295 779.520569,169.990082 775.517578,172.282349 
	C769.817200,175.546677 764.472412,179.662628 759.608643,184.107315 
	C750.437622,192.487961 741.356812,201.027191 732.909973,210.123947 
	C723.962158,219.760178 715.831055,230.152313 707.246460,240.131073 
	C706.064209,241.505295 704.325012,242.400330 702.843628,243.517197 
	C704.295654,237.644882 706.516724,232.779434 708.552673,227.837738 
	C711.460938,220.778381 714.896912,213.885117 716.057312,206.225662 
	C716.675659,202.143784 718.501343,197.612686 717.399902,194.013336 
	C712.966248,179.524475 696.104126,165.918777 679.669250,169.258804 
	C679.347534,175.967361 680.143677,182.714386 678.472351,188.781769 
	C675.922424,198.038925 671.762390,206.865372 668.104065,215.800217 
	C665.295898,222.658798 661.942749,229.301285 659.294556,236.216980 
	C652.380127,254.273636 645.630737,272.395081 639.002808,290.559052 
	C636.461975,297.522217 633.641479,304.532501 632.370178,311.771057 
	C630.875122,320.284302 632.323975,328.450165 639.572510,334.774414 
	C644.682373,339.232727 650.046509,342.938263 656.037598,346.209076 
	C660.667419,348.736725 664.708252,349.287964 669.063904,348.713257 
	C669.733093,343.059967 669.986572,337.811737 671.060608,332.737183 
	C672.091187,327.867920 673.759888,323.098053 675.530273,318.429413 
	C678.141296,311.543884 680.586853,304.518188 684.033813,298.048126 
	C687.705017,291.157043 692.395386,284.799988 696.761536,278.290802 
	C700.580139,272.597778 704.495300,266.966034 708.498352,261.401123 
	C712.578857,255.728531 716.585632,249.976624 721.048645,244.612152 
	C726.426331,238.148254 732.254395,232.059280 737.880432,225.801605 
	C741.279785,222.020630 744.486267,218.046021 748.096741,214.479660 
	C754.620361,208.035736 761.158813,201.535629 770.461365,197.287643 
	C770.095276,199.337692 770.173889,200.748383 769.598633,201.802109 
	C766.887939,206.767456 763.586426,211.448975 761.267029,216.580429 
	C757.640747,224.603195 754.702271,232.934128 751.353210,241.085541 
	C745.367188,255.655090 738.820496,270.015259 733.406616,284.792114 
	C729.212036,296.240753 726.187866,308.075897 726.684937,320.617737 
	C726.979919,328.061249 730.963501,333.788757 735.806885,337.625977 
	C742.344604,342.805481 750.461670,346.188446 758.243591,349.549133 
	C767.379761,353.494659 774.431152,351.713074 780.390076,345.112579 
	C770.359070,340.716400 768.849915,337.432953 768.743225,325.961609 
	C768.702759,321.613708 770.550110,317.225891 771.683472,312.894562 
	C773.410767,306.293060 775.192383,299.703644 777.094666,293.150818 
	C778.145142,289.532379 779.443726,285.982941 780.710388,282.430939 
	C783.032288,275.919861 785.298096,269.384796 787.815369,262.948944 
	C789.201660,259.404633 791.107727,256.066895 792.673401,252.588303 
	C793.657410,250.402115 794.341736,248.080032 795.342407,245.902527 
	C797.356018,241.520950 799.494019,237.196548 801.741394,232.039627 
M878.236389,152.815048 
	C877.135559,156.429550 876.431946,160.228714 874.854614,163.621719 
	C871.075073,171.752304 867.186157,179.861877 862.784729,187.666077 
	C857.151917,197.653671 851.211914,207.488449 844.967773,217.105667 
	C837.308289,228.903015 829.628357,240.733566 821.147461,251.936661 
	C814.197876,261.116791 806.089905,269.423584 798.435547,278.064484 
	C796.136108,280.660187 794.851440,283.448700 797.154114,286.480377 
	C801.294312,291.931519 805.509888,297.352844 810.110046,302.407990 
	C811.261230,303.673004 814.137451,304.208008 815.974487,303.842133 
	C820.394714,302.961609 824.615356,301.120514 829.014832,300.084503 
	C835.715027,298.506805 842.475769,297.154480 849.255493,295.960114 
	C852.766663,295.341553 856.373169,295.259430 859.937988,294.950989 
	C868.260803,294.230804 876.584595,293.520294 886.041992,292.708527 
	C883.069946,301.252655 880.529419,308.415131 878.089539,315.611725 
	C875.871460,322.154327 873.717407,328.719604 871.619629,335.301819 
	C869.750061,341.168121 867.564392,346.985291 866.367920,352.993347 
	C865.741394,356.139069 865.974304,360.210663 867.523254,362.872437 
	C870.438904,367.882812 874.043152,372.788177 878.351807,376.624390 
	C885.164429,382.690063 893.436646,386.316925 902.796997,386.500488 
	C907.702454,386.596680 908.439697,384.988403 907.318054,380.423279 
	C906.554138,377.314148 906.249512,373.757263 906.958069,370.681305 
	C909.524414,359.540771 912.534851,348.499634 915.527161,337.461517 
	C916.709778,333.098938 918.094543,328.768311 919.740479,324.561340 
	C921.062561,321.182190 923.294495,318.139923 924.458923,314.722015 
	C927.045532,307.129181 929.006226,299.322540 931.611389,291.736755 
	C934.521179,283.263763 937.838013,274.929718 941.020752,266.551544 
	C945.195557,255.561798 949.497375,244.619385 953.567932,233.591415 
	C955.119263,229.388763 956.650208,225.081161 957.358704,220.687302 
	C958.469971,213.794708 957.446411,207.019745 952.786011,201.494537 
	C947.726685,195.496521 942.545166,189.715073 933.950684,188.357742 
	C927.931091,187.407074 925.466248,187.272903 923.823547,195.146286 
	C921.192017,207.759018 915.229797,219.691711 910.520691,231.851913 
	C905.811646,244.011902 901.014465,256.140686 896.004700,268.178558 
	C895.084351,270.389832 893.017700,273.732208 891.387817,273.786591 
	C877.817505,274.239319 864.225647,274.043457 850.529480,274.043457 
	C855.001160,268.900757 859.320312,264.205017 863.328918,259.257599 
	C868.861755,252.429001 874.185913,245.430206 879.543335,238.461151 
	C881.114014,236.417938 882.619995,234.302902 883.933533,232.089005 
	C886.252014,228.181488 888.236450,224.069733 890.657104,220.230331 
	C894.385864,214.315964 898.782410,208.786789 902.114868,202.668884 
	C905.177002,197.047287 907.282837,190.893799 909.669434,184.918518 
	C911.721130,179.781418 914.673645,174.678787 915.224548,169.353668 
	C915.848022,163.326157 915.882812,157.352524 912.931824,150.899521 
	C907.380127,138.759827 894.316223,129.241684 879.588684,130.335358 
	C881.375366,137.675140 882.528320,145.064941 878.236389,152.815048 
z"/>
<path fill="#FCFBFB" opacity="1.000000" stroke="none" 
	d="
M407.968018,305.228485 
	C408.800995,303.134552 409.506317,301.437866 410.211670,299.741150 
	C409.993713,299.604126 409.775726,299.467133 409.557770,299.330109 
	C404.796173,304.785706 399.978302,310.193420 395.284454,315.706696 
	C385.046967,327.731415 374.610046,339.552032 359.979706,346.474823 
	C354.602844,349.019043 349.330017,347.099945 344.206024,345.056641 
	C335.449799,341.564880 327.806763,335.699829 323.323090,328.032501 
	C318.262970,319.379395 313.156677,309.622131 317.276093,298.507111 
	C317.857605,296.938110 317.356506,294.967896 317.356506,292.232300 
	C315.747803,293.357697 314.797668,293.840576 314.076752,294.554840 
	C306.820068,301.744751 300.108795,309.591156 292.250427,316.042511 
	C280.898865,325.361603 268.869232,333.886993 256.797455,342.273987 
	C253.757004,344.386353 249.476776,344.758057 245.731110,345.803619 
	C232.193237,349.582520 219.707230,346.779297 208.197678,339.262207 
	C199.410858,333.523315 191.968613,326.387207 188.075821,316.329315 
	C183.790970,305.258484 182.434235,293.914642 185.182159,282.178955 
	C186.498352,276.557770 187.040222,270.749603 188.458130,265.159363 
	C190.170181,258.409454 191.118118,251.565292 195.008591,245.266571 
	C200.988968,235.584244 205.730515,225.136978 211.010544,215.020996 
	C211.233917,214.593018 211.565002,214.213974 211.882492,213.843460 
	C217.979736,206.727448 223.331284,198.735748 230.374100,192.726578 
	C239.193375,185.201660 248.812271,178.075851 259.196747,173.092209 
	C267.628754,169.045563 277.269257,167.897034 287.463104,170.006149 
	C296.324219,171.839508 304.383789,174.653549 310.999054,180.199783 
	C314.830170,183.411774 319.345062,187.386276 318.893890,193.860764 
	C318.516296,199.279114 318.800171,204.744995 318.825806,210.189651 
	C318.856232,216.657486 316.270538,222.262650 313.329956,227.829529 
	C310.297241,233.570786 307.577057,239.477020 304.706451,245.304321 
	C304.487762,245.748322 304.212769,246.188354 303.875122,246.546478 
	C297.770233,253.021194 292.056915,259.937714 285.437622,265.837219 
	C276.347900,273.938568 266.869537,281.604034 255.279160,286.255554 
	C246.276932,289.868378 237.704254,296.138062 228.143234,286.677216 
	C227.721832,286.984406 227.300430,287.291595 226.879028,287.598785 
	C226.524811,297.258423 226.002045,306.915863 225.876419,316.578491 
	C225.794495,322.878357 231.088730,327.983826 237.367279,328.011322 
	C250.595901,328.069275 261.382263,322.248993 271.093140,313.833923 
	C277.927612,307.911407 285.499695,302.696564 291.603546,296.110260 
	C299.447906,287.645935 309.522644,281.137177 314.614441,270.087097 
	C315.943512,267.202820 319.666687,265.524261 321.688629,262.838928 
	C330.306335,251.393707 338.607635,239.710464 347.210358,228.253693 
	C351.657166,222.331558 356.478638,216.689819 361.159882,210.945038 
	C362.988983,208.700378 365.154266,206.688004 366.724304,204.281357 
	C372.481293,195.456711 381.525818,190.229935 389.292572,183.675598 
	C399.822906,174.789124 412.744446,170.689011 425.950653,167.543915 
	C426.756775,167.351944 427.654205,166.968643 428.392029,167.150284 
	C441.483673,170.372818 455.659241,171.024857 464.492523,183.815033 
	C469.022003,190.373535 470.957733,198.527618 465.724487,206.215042 
	C464.661621,207.776306 462.569122,208.636673 459.692688,210.740845 
	C460.674011,203.000870 458.227600,198.086487 452.975586,194.811615 
	C446.676086,190.883575 441.112396,193.952866 435.446075,196.835648 
	C422.868683,203.234467 413.581329,213.577454 404.607239,223.839508 
	C396.127777,233.536011 389.174225,244.614899 381.996765,255.383835 
	C377.746582,261.760681 373.832733,268.479309 370.724518,275.469727 
	C366.884125,284.106903 364.486847,293.388916 360.597382,301.999969 
	C358.124786,307.474182 357.540131,312.877075 357.693176,318.607483 
	C357.816986,323.244568 359.981964,324.812592 363.992554,322.716614 
	C367.045319,321.121185 370.196503,319.323456 372.576904,316.901276 
	C381.864532,307.450714 391.289276,298.077087 399.843475,287.980560 
	C407.702087,278.705078 414.924622,268.814056 421.651337,258.679169 
	C427.600800,249.715225 432.690247,240.152283 437.728577,230.625961 
	C439.687866,226.921356 440.667389,222.644028 441.723114,218.532532 
	C442.640625,214.959274 444.452972,213.004440 448.159790,214.180542 
	C459.245087,217.697800 468.673279,224.000366 474.226898,234.193832 
	C476.869110,239.043457 475.875031,245.664169 473.876801,251.054184 
	C470.716705,259.578186 466.530975,267.715851 463.085266,276.142120 
	C460.611115,282.192474 458.531769,288.412201 456.463501,294.618774 
	C453.479797,303.572418 450.630096,312.571533 447.829193,321.584167 
	C447.515564,322.593292 447.889374,323.816010 447.953735,325.130524 
	C448.857269,324.974274 449.715424,325.092102 450.091003,324.721191 
	C456.245667,318.643799 462.740662,312.847260 468.340851,306.288879 
	C474.710632,298.829193 480.389984,290.763947 486.142792,282.798279 
	C490.992035,276.083771 495.666779,269.231445 500.146973,262.265289 
	C505.637970,253.727371 511.085510,245.144196 516.116882,236.332245 
	C522.668396,224.857941 528.314392,212.961075 531.648621,200.050629 
	C532.719910,195.902603 535.047058,192.091873 536.306458,187.975937 
	C537.597107,183.758163 538.622803,179.388000 539.041016,175.015335 
	C539.177795,173.585297 537.046753,171.938370 535.926697,170.353607 
	C543.635376,166.600952 557.055847,169.501663 563.691956,176.170029 
	C565.332458,177.818527 566.827332,179.649094 568.633789,181.089035 
	C576.825989,187.619095 576.369324,196.386871 574.226746,205.028595 
	C571.775146,214.916763 568.298645,224.550797 564.939270,235.350296 
	C568.713135,230.962830 572.034241,227.170074 575.280273,223.314117 
	C582.496887,214.741562 589.611084,206.081879 596.892944,197.565338 
	C601.814392,191.809402 606.414124,185.605301 612.132263,180.749222 
	C618.648865,175.215073 625.289978,168.293121 634.197632,167.844833 
	C642.127380,167.445770 648.844666,172.452423 655.138123,177.542404 
	C661.975220,183.072083 660.938965,190.282425 660.651306,197.408081 
	C660.592224,198.872162 658.487244,200.141586 657.811890,201.710220 
	C650.869263,217.834793 643.955078,233.972610 637.203613,250.177811 
	C635.356201,254.612000 637.813293,262.097382 641.920532,264.582489 
	C645.629517,266.826599 644.997253,268.696655 641.621887,269.823792 
	C638.104553,270.998383 634.204285,272.181274 630.640564,271.795959 
	C625.069092,271.193634 619.207703,270.137024 614.274719,267.665161 
	C609.523804,265.284576 603.543701,263.638214 601.461426,257.518280 
	C600.317078,254.154846 598.359497,250.920456 597.939697,247.484802 
	C596.443542,235.239731 602.327026,224.850006 607.148865,214.259506 
	C608.452820,211.395416 610.099915,208.687546 611.589478,205.907990 
	C611.161194,205.526169 610.732849,205.144348 610.304504,204.762527 
	C606.592590,208.276917 602.660461,211.590073 599.220520,215.353043 
	C594.112976,220.940125 589.228210,226.744919 584.488831,232.649811 
	C581.144836,236.816071 578.228638,241.323700 575.061768,245.635101 
	C573.731689,247.445923 572.091675,249.041214 570.863098,250.912186 
	C567.404358,256.179657 564.096802,261.546265 560.709229,266.860840 
	C557.194031,272.375702 553.309570,277.689667 550.220947,283.432648 
	C546.960388,289.495331 544.286560,295.893921 541.656860,302.269714 
	C539.168457,308.302979 536.962097,314.459869 534.833069,320.631836 
	C533.063354,325.762054 531.361816,330.937378 530.053223,336.197968 
	C529.082397,340.100830 528.790039,344.172485 528.074402,348.982086 
	C514.274048,349.653381 504.464447,341.425537 496.146423,331.706848 
	C486.745270,320.722626 491.898285,308.575928 496.244965,296.868317 
	C495.717926,296.628632 495.190857,296.388916 494.663788,296.149200 
	C489.942749,302.326263 485.662689,308.911591 480.404053,314.590912 
	C470.973297,324.776093 461.360382,334.875092 450.986115,344.064575 
	C446.684265,347.875153 440.466492,348.522614 434.116302,346.157257 
	C423.093964,342.051514 414.399414,335.524750 408.428619,325.392609 
	C408.036865,324.727905 407.260529,324.070496 407.272797,323.421265 
	C407.385040,317.487976 407.632416,311.557190 407.968018,305.228485 
M240.741409,254.268234 
	C237.027039,261.924805 233.798172,269.747009 232.274887,278.414612 
	C237.387344,276.228485 242.236359,274.028320 246.271942,270.808624 
	C258.249115,261.252869 269.272125,250.909027 278.179230,238.065872 
	C283.225128,230.790146 288.358948,223.792892 292.040771,215.701599 
	C294.741913,209.765533 297.484772,204.066528 298.366455,197.362244 
	C298.972412,192.754791 296.894531,192.281830 294.149933,193.072815 
	C290.319946,194.176544 286.032959,195.535538 283.277069,198.178101 
	C275.195984,205.926834 267.654419,214.255432 260.153290,222.583664 
	C256.989563,226.096237 254.154984,229.994400 251.706253,234.041306 
	C247.866119,240.387711 244.479996,247.008850 240.741409,254.268234 
z"/>
<path fill="#FCFCFC" opacity="1.000000" stroke="none" 
	d="
M133.494659,363.677948 
	C136.781921,364.251556 139.753769,364.712311 142.652756,365.456879 
	C157.685272,369.317657 172.670441,373.366119 187.728973,377.121185 
	C199.025162,379.938019 210.381470,382.528992 221.758301,385.003082 
	C233.936859,387.651489 246.130341,390.268677 258.391785,392.488037 
	C271.037689,394.777039 283.812439,396.353455 296.459656,398.636017 
	C312.236023,401.483307 328.148651,400.481506 343.895935,399.719513 
	C358.966400,398.990265 373.944275,395.550781 387.605072,388.703217 
	C395.443634,384.774078 403.372375,380.371826 407.705231,371.904175 
	C408.202393,370.932556 409.686310,370.465820 411.679565,369.104828 
	C411.679565,375.884064 412.039673,381.611511 411.555542,387.266663 
	C411.221619,391.167114 410.067078,395.103607 408.631683,398.770508 
	C407.439056,401.817322 405.536591,404.671875 403.544434,407.305969 
	C392.409576,422.028595 378.599182,433.194794 360.241608,437.257202 
	C351.841217,439.116150 343.128845,439.795807 334.515198,440.389069 
	C327.338379,440.883392 320.050293,440.998047 312.898743,440.336945 
	C301.959381,439.325745 291.073303,437.644073 280.205902,435.977600 
	C271.906464,434.704895 263.600067,433.320862 255.426819,431.425568 
	C247.006241,429.472870 238.757736,426.787292 230.406906,424.522064 
	C222.118057,422.273621 213.766571,420.252502 205.498611,417.931946 
	C200.518799,416.534271 195.671494,414.671356 190.719299,413.166687 
	C182.600037,410.699707 174.421494,408.426819 166.311401,405.930908 
	C161.224655,404.365448 156.269836,402.361542 151.162582,400.874725 
	C142.813690,398.444214 134.390717,396.267609 125.995193,393.998016 
	C120.298210,392.457947 114.634651,390.766144 108.883980,389.459808 
	C101.648949,387.816254 94.361618,385.425323 87.058556,385.279846 
	C75.060265,385.040863 62.981373,383.669983 51.004742,387.629059 
	C43.651417,390.059845 36.435944,391.984131 30.748196,397.590973 
	C30.040369,398.288788 28.329824,398.174469 27.133591,398.028687 
	C26.831577,397.991913 26.303856,396.207764 26.589903,395.523346 
	C28.581940,390.756927 28.247530,385.552948 30.635212,380.622894 
	C34.017540,373.639191 38.589333,368.187775 44.742016,364.091919 
	C55.701675,356.796021 68.089226,354.479523 81.111176,354.998962 
	C84.253136,355.124298 87.404350,355.017578 91.792488,355.017578 
	C83.512825,347.107269 84.232002,337.423584 85.283325,328.304901 
	C86.282600,319.637634 88.876221,311.057343 91.592453,302.706726 
	C96.074394,288.927734 101.032715,275.293640 106.168671,261.741913 
	C108.515892,255.548553 111.929611,249.767395 114.539467,243.662399 
	C116.039345,240.153870 116.677277,236.283600 118.088921,232.729340 
	C121.858894,223.237274 125.901550,213.853851 129.715698,204.378891 
	C133.926422,193.918823 137.901169,183.363083 142.169662,172.927124 
	C145.938583,163.712479 150.114578,154.663773 153.853302,145.437439 
	C160.060226,130.120071 166.028656,114.706238 172.161423,99.358566 
	C175.304138,91.493629 178.610687,83.694328 181.796738,75.846512 
	C185.155106,67.574188 188.033661,59.171978 187.026321,50.034332 
	C186.135757,41.955906 190.363129,42.603588 195.813751,43.656616 
	C206.450912,45.711647 213.810623,52.414890 218.935837,61.077976 
	C222.514374,67.126686 224.868225,73.844940 223.126602,81.870583 
	C220.308472,94.856865 216.562988,107.405754 211.504471,119.659531 
	C208.876114,126.026474 207.189636,132.779160 204.626968,139.177078 
	C201.558075,146.838852 197.951233,154.283401 194.680283,161.866440 
	C190.175400,172.310074 185.613647,182.733582 181.365372,193.282135 
	C177.937210,201.794327 175.230423,210.601974 171.681793,219.059601 
	C165.593155,233.570984 158.908920,247.833221 152.869629,262.364166 
	C150.608185,267.805359 149.764877,273.822083 147.705414,279.364746 
	C145.386475,285.605774 142.094788,291.487885 139.818497,297.741699 
	C136.197495,307.689880 133.102844,317.828735 129.712097,327.862091 
	C128.321945,331.975586 126.146111,335.916809 125.383476,340.127594 
	C124.193596,346.697449 123.902992,353.430115 123.203720,360.367828 
	C126.839920,361.585083 129.992783,362.640533 133.494659,363.677948 
z"/>
<path fill="#FCFBFB" opacity="1.000000" stroke="none" 
	d="
M1012.427734,368.451416 
	C1022.659973,360.011780 1029.611206,349.276337 1035.995850,338.427704 
	C1042.131104,328.002502 1046.171509,316.526428 1049.369995,304.657654 
	C1052.015137,294.841766 1052.116943,285.164276 1052.078491,275.313324 
	C1052.034546,264.049713 1043.699341,256.585449 1032.428101,255.839447 
	C1018.877747,254.942612 1007.661377,260.332001 996.714844,267.005493 
	C992.357422,269.662018 988.596619,269.047852 982.329224,263.364685 
	C977.770691,259.231018 973.439026,254.829163 969.251282,250.319244 
	C968.376404,249.377045 967.910950,247.166656 968.384399,245.997360 
	C973.246887,233.990189 978.333618,222.073624 983.375122,210.139099 
	C986.246338,203.342041 989.112061,196.542221 992.048035,189.773041 
	C995.490173,181.836990 999.287476,174.039108 1002.337646,165.957458 
	C1003.411682,163.111679 1002.576050,159.587387 1002.929260,156.408112 
	C1003.086853,154.989120 1003.640991,153.038635 1004.677979,152.391510 
	C1009.409790,149.438477 1014.484863,150.371216 1019.835327,150.303268 
	C1026.279785,150.221405 1032.065796,152.302353 1038.228394,152.515366 
	C1048.242065,152.861542 1058.255493,154.012451 1068.251221,153.832489 
	C1076.278687,153.687943 1084.345093,150.956345 1092.274902,151.418488 
	C1100.693115,151.909058 1107.559326,148.595398 1114.865234,145.950241 
	C1120.767334,143.813400 1125.238770,139.954254 1128.408081,133.383957 
	C1129.159302,135.025360 1129.759155,135.879959 1129.945923,136.816849 
	C1131.234863,143.286072 1132.828979,149.401337 1131.840332,156.474960 
	C1130.540649,165.772202 1126.565918,173.023102 1120.306030,179.088303 
	C1114.505371,184.708633 1107.022095,187.731247 1098.856445,188.499298 
	C1092.500000,189.097183 1086.056152,190.315948 1079.772339,189.795700 
	C1068.660278,188.875732 1057.340088,188.734802 1046.734131,184.261139 
	C1044.452881,183.298889 1041.583130,183.732101 1039.156982,183.536423 
	C1031.156982,203.078842 1023.135986,222.672440 1015.209045,242.036240 
	C1021.637024,241.253952 1028.431519,239.325653 1035.016724,239.880295 
	C1045.242676,240.741531 1055.899902,241.121567 1065.185669,246.301407 
	C1074.180420,251.318878 1081.461670,257.841644 1087.165894,267.082306 
	C1091.710815,274.444977 1092.651245,282.367493 1095.049194,289.978912 
	C1096.449097,294.423004 1093.275146,300.192780 1094.310913,304.891876 
	C1096.204346,313.483429 1091.597412,320.650757 1090.752441,328.572266 
	C1090.334839,332.486572 1088.230225,336.383972 1086.252441,339.934448 
	C1082.256104,347.107910 1078.080322,354.211426 1073.491211,361.014984 
	C1069.961792,366.247253 1066.033813,371.312561 1061.652222,375.841675 
	C1056.502197,381.164825 1050.847046,386.047058 1045.077271,390.707428 
	C1040.622070,394.305878 1036.042725,398.285889 1030.824829,400.286499 
	C1021.720337,403.777313 1013.466675,410.107666 1002.780457,409.120575 
	C998.705688,408.744202 994.486450,410.367950 990.324463,410.422394 
	C973.860657,410.637848 959.537476,405.410217 948.277588,392.987488 
	C943.773132,388.017792 941.668945,381.934906 941.168091,375.411163 
	C940.381775,365.166840 941.339539,355.170319 946.455078,345.904236 
	C951.832703,336.163422 959.660156,328.770905 968.587524,322.437225 
	C980.413635,314.046844 993.595276,310.175659 1008.081848,311.546570 
	C1014.543335,312.158051 1019.168457,316.203583 1023.941528,321.985413 
	C1020.119141,321.985413 1017.069885,321.675446 1014.102783,322.037933 
	C999.641113,323.804901 986.315369,328.374023 975.845398,339.039917 
	C971.860352,343.099426 968.752808,348.051697 964.614380,351.922455 
	C957.021301,359.024292 959.336182,381.369446 968.924377,385.052948 
	C973.393555,386.769897 979.019226,386.580170 983.915833,385.860504 
	C995.584534,384.145538 1003.881470,376.299255 1012.427734,368.451416 
z"/>
<path fill="#FCFBFB" opacity="1.000000" stroke="none" 
	d="
M801.661011,232.444092 
	C799.494019,237.196548 797.356018,241.520950 795.342407,245.902527 
	C794.341736,248.080032 793.657410,250.402115 792.673401,252.588303 
	C791.107727,256.066895 789.201660,259.404633 787.815369,262.948944 
	C785.298096,269.384796 783.032288,275.919861 780.710388,282.430939 
	C779.443726,285.982941 778.145142,289.532379 777.094666,293.150818 
	C775.192383,299.703644 773.410767,306.293060 771.683472,312.894562 
	C770.550110,317.225891 768.702759,321.613708 768.743225,325.961609 
	C768.849915,337.432953 770.359070,340.716400 780.390076,345.112579 
	C774.431152,351.713074 767.379761,353.494659 758.243591,349.549133 
	C750.461670,346.188446 742.344604,342.805481 735.806885,337.625977 
	C730.963501,333.788757 726.979919,328.061249 726.684937,320.617737 
	C726.187866,308.075897 729.212036,296.240753 733.406616,284.792114 
	C738.820496,270.015259 745.367188,255.655090 751.353210,241.085541 
	C754.702271,232.934128 757.640747,224.603195 761.267029,216.580429 
	C763.586426,211.448975 766.887939,206.767456 769.598633,201.802109 
	C770.173889,200.748383 770.095276,199.337692 770.461365,197.287643 
	C761.158813,201.535629 754.620361,208.035736 748.096741,214.479660 
	C744.486267,218.046021 741.279785,222.020630 737.880432,225.801605 
	C732.254395,232.059280 726.426331,238.148254 721.048645,244.612152 
	C716.585632,249.976624 712.578857,255.728531 708.498352,261.401123 
	C704.495300,266.966034 700.580139,272.597778 696.761536,278.290802 
	C692.395386,284.799988 687.705017,291.157043 684.033813,298.048126 
	C680.586853,304.518188 678.141296,311.543884 675.530273,318.429413 
	C673.759888,323.098053 672.091187,327.867920 671.060608,332.737183 
	C669.986572,337.811737 669.733093,343.059967 669.063904,348.713257 
	C664.708252,349.287964 660.667419,348.736725 656.037598,346.209076 
	C650.046509,342.938263 644.682373,339.232727 639.572510,334.774414 
	C632.323975,328.450165 630.875122,320.284302 632.370178,311.771057 
	C633.641479,304.532501 636.461975,297.522217 639.002808,290.559052 
	C645.630737,272.395081 652.380127,254.273636 659.294556,236.216980 
	C661.942749,229.301285 665.295898,222.658798 668.104065,215.800217 
	C671.762390,206.865372 675.922424,198.038925 678.472351,188.781769 
	C680.143677,182.714386 679.347534,175.967361 679.669250,169.258804 
	C696.104126,165.918777 712.966248,179.524475 717.399902,194.013336 
	C718.501343,197.612686 716.675659,202.143784 716.057312,206.225662 
	C714.896912,213.885117 711.460938,220.778381 708.552673,227.837738 
	C706.516724,232.779434 704.295654,237.644882 702.843628,243.517197 
	C704.325012,242.400330 706.064209,241.505295 707.246460,240.131073 
	C715.831055,230.152313 723.962158,219.760178 732.909973,210.123947 
	C741.356812,201.027191 750.437622,192.487961 759.608643,184.107315 
	C764.472412,179.662628 769.817200,175.546677 775.517578,172.282349 
	C779.520569,169.990082 784.595886,168.046295 788.998962,168.394211 
	C793.645630,168.761398 798.864319,170.165131 802.249573,174.785156 
	C804.579712,177.965118 808.538147,180.063354 810.475220,183.396774 
	C814.479553,190.287720 814.634521,197.589966 811.293030,205.167984 
	C808.538513,211.415024 806.781982,218.100082 804.538757,224.575638 
	C803.669250,227.085464 802.677429,229.552887 801.661011,232.444092 
z"/>
<path fill="#FCFCFC" opacity="1.000000" stroke="none" 
	d="
M878.304565,152.406509 
	C882.528320,145.064941 881.375366,137.675140 879.588684,130.335358 
	C894.316223,129.241684 907.380127,138.759827 912.931824,150.899521 
	C915.882812,157.352524 915.848022,163.326157 915.224548,169.353668 
	C914.673645,174.678787 911.721130,179.781418 909.669434,184.918518 
	C907.282837,190.893799 905.177002,197.047287 902.114868,202.668884 
	C898.782410,208.786789 894.385864,214.315964 890.657104,220.230331 
	C888.236450,224.069733 886.252014,228.181488 883.933533,232.089005 
	C882.619995,234.302902 881.114014,236.417938 879.543335,238.461151 
	C874.185913,245.430206 868.861755,252.429001 863.328918,259.257599 
	C859.320312,264.205017 855.001160,268.900757 850.529480,274.043457 
	C864.225647,274.043457 877.817505,274.239319 891.387817,273.786591 
	C893.017700,273.732208 895.084351,270.389832 896.004700,268.178558 
	C901.014465,256.140686 905.811646,244.011902 910.520691,231.851913 
	C915.229797,219.691711 921.192017,207.759018 923.823547,195.146286 
	C925.466248,187.272903 927.931091,187.407074 933.950684,188.357742 
	C942.545166,189.715073 947.726685,195.496521 952.786011,201.494537 
	C957.446411,207.019745 958.469971,213.794708 957.358704,220.687302 
	C956.650208,225.081161 955.119263,229.388763 953.567932,233.591415 
	C949.497375,244.619385 945.195557,255.561798 941.020752,266.551544 
	C937.838013,274.929718 934.521179,283.263763 931.611389,291.736755 
	C929.006226,299.322540 927.045532,307.129181 924.458923,314.722015 
	C923.294495,318.139923 921.062561,321.182190 919.740479,324.561340 
	C918.094543,328.768311 916.709778,333.098938 915.527161,337.461517 
	C912.534851,348.499634 909.524414,359.540771 906.958069,370.681305 
	C906.249512,373.757263 906.554138,377.314148 907.318054,380.423279 
	C908.439697,384.988403 907.702454,386.596680 902.796997,386.500488 
	C893.436646,386.316925 885.164429,382.690063 878.351807,376.624390 
	C874.043152,372.788177 870.438904,367.882812 867.523254,362.872437 
	C865.974304,360.210663 865.741394,356.139069 866.367920,352.993347 
	C867.564392,346.985291 869.750061,341.168121 871.619629,335.301819 
	C873.717407,328.719604 875.871460,322.154327 878.089539,315.611725 
	C880.529419,308.415131 883.069946,301.252655 886.041992,292.708527 
	C876.584595,293.520294 868.260803,294.230804 859.937988,294.950989 
	C856.373169,295.259430 852.766663,295.341553 849.255493,295.960114 
	C842.475769,297.154480 835.715027,298.506805 829.014832,300.084503 
	C824.615356,301.120514 820.394714,302.961609 815.974487,303.842133 
	C814.137451,304.208008 811.261230,303.673004 810.110046,302.407990 
	C805.509888,297.352844 801.294312,291.931519 797.154114,286.480377 
	C794.851440,283.448700 796.136108,280.660187 798.435547,278.064484 
	C806.089905,269.423584 814.197876,261.116791 821.147461,251.936661 
	C829.628357,240.733566 837.308289,228.903015 844.967773,217.105667 
	C851.211914,207.488449 857.151917,197.653671 862.784729,187.666077 
	C867.186157,179.861877 871.075073,171.752304 874.854614,163.621719 
	C876.431946,160.228714 877.135559,156.429550 878.304565,152.406509 
z"/>
<path fill="#030303" opacity="1.000000" stroke="none" 
	d="
M240.821503,253.890930 
	C244.479996,247.008850 247.866119,240.387711 251.706253,234.041306 
	C254.154984,229.994400 256.989563,226.096237 260.153290,222.583664 
	C267.654419,214.255432 275.195984,205.926834 283.277069,198.178101 
	C286.032959,195.535538 290.319946,194.176544 294.149933,193.072815 
	C296.894531,192.281830 298.972412,192.754791 298.366455,197.362244 
	C297.484772,204.066528 294.741913,209.765533 292.040771,215.701599 
	C288.358948,223.792892 283.225128,230.790146 278.179230,238.065872 
	C269.272125,250.909027 258.249115,261.252869 246.271942,270.808624 
	C242.236359,274.028320 237.387344,276.228485 232.274887,278.414612 
	C233.798172,269.747009 237.027039,261.924805 240.821503,253.890930 
z"/>
</svg>